<svg width="186" height="142" viewBox="0 0 186 142" fill="none" xmlns="http://www.w3.org/2000/svg">
<path d="M63.639 120.64C64.0428 120.236 64.0428 119.581 63.639 119.177C52.7486 108.286 52.7486 90.5668 63.639 79.6764C64.0428 79.2726 64.0428 78.6172 63.639 78.2134C63.2352 77.8097 62.5798 77.8097 62.176 78.2134C51.2856 89.1039 33.566 89.1039 22.6756 78.2134C22.2718 77.8097 21.6164 77.8097 21.2126 78.2134C20.8088 78.6172 20.8088 79.2726 21.2126 79.6764C32.103 90.5668 32.103 108.286 21.2126 119.177C20.8088 119.581 20.8088 120.236 21.2126 120.64C21.6164 121.044 22.2718 121.044 22.6756 120.64C33.566 109.749 51.2856 109.749 62.176 120.64C62.5798 121.044 63.2352 121.044 63.639 120.64Z" fill="white"/>
<path d="M117.071 106.213C117.206 106.348 117.424 106.348 117.559 106.213C121.189 102.583 127.095 102.583 130.725 106.213C130.86 106.348 131.079 106.348 131.213 106.213C131.348 106.079 131.348 105.86 131.213 105.725C127.583 102.095 127.583 96.1888 131.213 92.5587C131.348 92.4241 131.348 92.2056 131.213 92.071C131.079 91.9364 130.86 91.9364 130.725 92.071C127.095 95.7012 121.189 95.7012 117.559 92.071C117.424 91.9364 117.206 91.9364 117.071 92.071C116.936 92.2056 116.936 92.4241 117.071 92.5587C120.701 96.1888 120.701 102.095 117.071 105.725C116.936 105.86 116.936 106.079 117.071 106.213Z" fill="white"/>
<path d="M174.714 138.142C174.785 138.212 174.9 138.212 174.97 138.142C176.877 136.235 179.979 136.235 181.886 138.142C181.956 138.212 182.071 138.212 182.142 138.142C182.212 138.071 182.212 137.956 182.142 137.885C180.235 135.979 180.235 132.877 182.142 130.97C182.212 130.899 182.212 130.785 182.142 130.714C182.071 130.643 181.956 130.643 181.886 130.714C179.979 132.621 176.877 132.621 174.97 130.714C174.9 130.643 174.785 130.643 174.714 130.714C174.643 130.785 174.643 130.899 174.714 130.97C176.621 132.877 176.621 135.979 174.714 137.885C174.643 137.956 174.643 138.071 174.714 138.142Z" fill="white"/>
<path d="M85.071 21.2132C85.2056 21.3478 85.424 21.3478 85.5586 21.2132C89.1888 17.5831 95.0953 17.5831 98.7255 21.2132C98.86 21.3478 99.0785 21.3478 99.2131 21.2132C99.3477 21.0786 99.3477 20.8601 99.2131 20.7255C95.583 17.0954 95.583 11.1889 99.2131 7.55873C99.3477 7.42413 99.3477 7.20566 99.2131 7.07107C99.0785 6.93647 98.86 6.93647 98.7255 7.07107C95.0953 10.7012 89.1888 10.7012 85.5586 7.07107C85.424 6.93647 85.2056 6.93647 85.071 7.07107C84.9364 7.20566 84.9364 7.42413 85.071 7.55873C88.7011 11.1889 88.7011 17.0954 85.071 20.7255C84.9364 20.8601 84.9364 21.0786 85.071 21.2132Z" fill="white"/>
</svg>
