<svg width="416" height="365" viewBox="0 0 416 365" fill="none" xmlns="http://www.w3.org/2000/svg">
<path d="M196.949 139.182C197.191 138.94 197.191 138.546 196.949 138.304C190.414 131.77 190.414 121.138 196.949 114.604C197.191 114.361 197.191 113.968 196.949 113.726C196.706 113.484 196.313 113.484 196.071 113.726C189.537 120.26 178.905 120.26 172.371 113.726C172.128 113.484 171.735 113.484 171.493 113.726C171.251 113.968 171.251 114.361 171.493 114.604C178.027 121.138 178.027 131.77 171.493 138.304C171.251 138.546 171.251 138.94 171.493 139.182C171.735 139.424 172.128 139.424 172.371 139.182C178.905 132.648 189.537 132.648 196.071 139.182C196.313 139.424 196.706 139.424 196.949 139.182Z" fill="white"/>
<path d="M130.639 238.549C131.043 238.146 131.043 237.49 130.639 237.086C119.749 226.196 119.749 208.476 130.639 197.586C131.043 197.182 131.043 196.527 130.639 196.123C130.235 195.719 129.58 195.719 129.176 196.123C118.286 207.013 100.566 207.013 89.6756 196.123C89.2718 195.719 88.6164 195.719 88.2126 196.123C87.8088 196.527 87.8088 197.182 88.2126 197.586C99.103 208.476 99.103 226.196 88.2126 237.086C87.8088 237.49 87.8088 238.146 88.2126 238.549C88.6164 238.953 89.2718 238.953 89.6756 238.549C100.566 227.659 118.286 227.659 129.176 238.549C129.58 238.953 130.235 238.953 130.639 238.549Z" fill="white"/>
<path d="M137.072 95.2127C137.207 95.3473 137.425 95.3473 137.56 95.2127C141.19 91.5825 147.096 91.5825 150.726 95.2127C150.861 95.3473 151.079 95.3473 151.214 95.2127C151.349 95.0781 151.349 94.8596 151.214 94.725C147.584 91.0949 147.584 85.1883 151.214 81.5582C151.349 81.4236 151.349 81.2051 151.214 81.0705C151.079 80.9359 150.861 80.9359 150.726 81.0705C147.096 84.7007 141.19 84.7007 137.56 81.0705C137.425 80.9359 137.207 80.9359 137.072 81.0705C136.937 81.2051 136.937 81.4236 137.072 81.5582C140.702 85.1883 140.702 91.0949 137.072 94.725C136.937 94.8596 136.937 95.0781 137.072 95.2127Z" fill="white"/>
<path d="M196.072 21.2132C196.207 21.3478 196.425 21.3478 196.56 21.2132C200.19 17.5831 206.096 17.5831 209.726 21.2132C209.861 21.3478 210.079 21.3478 210.214 21.2132C210.349 21.0786 210.349 20.8602 210.214 20.7256C206.584 17.0954 206.584 11.1889 210.214 7.55874C210.349 7.42415 210.349 7.20568 210.214 7.07108C210.079 6.93649 209.861 6.93649 209.726 7.07108C206.096 10.7012 200.19 10.7012 196.56 7.07108C196.425 6.93649 196.207 6.93649 196.072 7.07108C195.937 7.20568 195.937 7.42415 196.072 7.55874C199.702 11.1889 199.702 17.0954 196.072 20.7256C195.937 20.8602 195.937 21.0786 196.072 21.2132Z" fill="white"/>
<path d="M298.728 231.182C298.971 231.424 299.364 231.424 299.606 231.182C306.14 224.648 316.772 224.648 323.306 231.182C323.549 231.424 323.942 231.424 324.184 231.182C324.426 230.94 324.426 230.546 324.184 230.304C317.65 223.77 317.65 213.138 324.184 206.604C324.426 206.361 324.426 205.968 324.184 205.726C323.942 205.484 323.549 205.484 323.306 205.726C316.772 212.26 306.14 212.26 299.606 205.726C299.364 205.484 298.971 205.484 298.728 205.726C298.486 205.968 298.486 206.361 298.728 206.604C305.263 213.138 305.263 223.77 298.728 230.304C298.486 230.546 298.486 230.94 298.728 231.182Z" fill="white"/>
</svg>
