<?xml version="1.0" standalone="no"?><!DOCTYPE svg PUBLIC "-//W3C//DTD SVG 1.1//EN" "http://www.w3.org/Graphics/SVG/1.1/DTD/svg11.dtd"><svg t="1645166431255" class="icon" viewBox="0 0 1024 1024" version="1.1" xmlns="http://www.w3.org/2000/svg" p-id="5241" width="32" height="32" xmlns:xlink="http://www.w3.org/1999/xlink"><defs><style type="text/css"></style></defs><path d="M879.4 662.4c10.6 3.5 12.7 17.7 3.4 24L819.1 730c-3.7 2.5-5.8 6.6-5.8 11.1l-0.1 77.3c0 11.2-12.9 17.5-21.7 10.7L730.1 782c-3.5-2.7-8.1-3.5-12.3-2.1l-73.6 23.8c-10.6 3.4-20.6-6.8-16.9-17.4l25.9-72.8c1.5-4.2 0.8-8.8-1.8-12.4l-45.3-62.6c-6.6-9.1 0.1-21.7 11.3-21.4l77.3 2.1c4.4 0.1 8.6-1.9 11.3-5.5l45.5-62.5c6.6-9 20.7-6.6 23.8 4.1l21.9 74.1c1.2 4.3 4.5 7.6 8.7 9l73.5 24z" fill="#FCC58D" p-id="5242"></path><path d="M683.4 407.2c11.7 17.1-1.2 40.3-22 39.2l-143.3-7.6c-8.2-0.4-16.1 3.2-21.1 9.7l-87.5 113.7c-12.6 16.4-38.6 11.3-44-8.8l-37.1-138.7c-2.1-7.9-8-14.3-15.8-17.1l-135.2-48.1c-19.5-6.9-22.6-33.3-5.2-44.6L292.5 227c6.9-4.5 11.2-12.1 11.4-20.3l3.9-143.5c0.6-20.7 24.7-31.8 40.8-18.8l111.5 90.4c6.4 5.2 14.9 6.9 22.8 4.6l137.6-40.6c19.9-5.9 37.9 13.6 30.5 33l-51.5 134c-3 7.7-1.9 16.3 2.7 23.1l81.2 118.3z" fill="#F8D6A1" p-id="5243"></path><path d="M449.9 828.6c8 9.1 2 23.4-10.1 24.2l-83.5 5.4c-4.8 0.3-9.2 2.9-11.6 7.1l-42.9 71.9c-6.2 10.4-21.6 9.2-26.2-2.1l-30.9-77.8c-1.8-4.5-5.6-7.8-10.3-8.8l-81.6-18.7c-11.8-2.7-15.4-17.8-6.1-25.5l64.5-53.5c3.7-3.1 5.6-7.7 5.2-12.5l-7.5-83.4c-1.1-12.1 12.2-20.1 22.4-13.7L302 686c4.1 2.6 9.2 2.9 13.6 1.1l77-32.9c11.1-4.8 22.9 5.3 19.9 17l-20.7 81.1c-1.2 4.7 0 9.6 3.2 13.2l54.9 63.1z" fill="#E19175" p-id="5244"></path><path d="M389.7 586.3c-2.6 0-5.2-0.3-7.8-0.8-14.8-2.9-26.3-13.8-30.2-28.3l-37.1-138.7c-0.9-3.4-3.4-6.2-6.8-7.3l-135.2-48.1c-14.2-5-24.1-17.5-25.8-32.4-1.8-15 5-29.3 17.6-37.5l120.4-78.1c3-1.9 4.8-5.2 4.9-8.7l3.9-143.5c0.4-15 9.2-28.3 22.8-34.6 13.7-6.3 29.5-4.3 41.2 5.1l111.5 90.4c2.7 2.2 6.4 3 9.8 2l137.6-40.6c14.4-4.3 29.7-0.1 39.9 11s13.2 26.7 7.9 40.8l-51.5 134c-1.3 3.3-0.8 7 1.2 10l81.1 118.3c8.5 12.4 9.2 28.3 1.9 41.4-7.4 13.1-21.3 20.8-36.3 20L517.3 453c-3.5-0.2-6.9 1.4-9 4.1L420.7 571c-7.5 9.8-18.9 15.3-31 15.3zM333 53.1c-2.1 0-3.8 0.6-4.7 1-1.8 0.8-6.1 3.5-6.3 9.5l-3.9 143.5c-0.3 12.9-7 24.9-17.9 31.9l-120.3 78c-5.1 3.3-5.1 8.3-4.8 10.3 0.2 2 1.4 6.9 7.1 8.9l135.2 48.1c12.2 4.3 21.5 14.4 24.8 26.9l37.1 138.6c1.6 5.8 6.3 7.4 8.3 7.8 2 0.4 7 0.8 10.7-4l87.5-113.7c7.8-10.2 20.2-15.9 33.2-15.3l143.3 7.6c6 0.3 9-3.7 10-5.5 1-1.8 2.9-6.4-0.5-11.4L590.5 297c-7.3-10.7-8.9-24.3-4.2-36.3l51.5-133.9c2.2-5.7-0.8-9.7-2.2-11.2-1.4-1.5-5.2-4.7-11-3L487 153.1c-12.4 3.7-25.8 1-35.8-7.2L339.7 55.5c-2.3-1.8-4.7-2.4-6.7-2.4zM289.2 958.5c-0.8 0-1.5 0-2.3-0.1-11-0.9-20.4-7.8-24.5-18.1l-30.9-77.8-81.9-18.9c-10.8-2.5-19.1-10.7-21.6-21.5-2.6-10.7 1.1-21.8 9.6-28.9l64.5-53.5-7.4-83.7c-1-11 4.3-21.4 13.7-27.2 9.4-5.8 21.1-5.7 30.5 0.2l70.7 44.8c0.1 0.1 0.3 0.1 0.4 0l76.9-32.9c10.1-4.4 21.6-2.6 30 4.6 8.4 7.2 12 18.3 9.2 29.1l-20.7 81.1 55.2 63.4c7.3 8.3 9.2 19.8 4.9 30.1-4.3 10.2-13.8 17-24.8 17.7l-83.5 5.4-43.2 72c-5.3 8.9-14.6 14.2-24.8 14.2z m-65.8-305.3c-0.2 0-0.4 0.1-0.4 0.2l7.5 83.6c0.8 9.4-3 18.7-10.3 24.7l-64.5 53.5c-0.2 0.2-0.1 0.5 0 0.6l81.8 18.7c9.2 2.1 16.9 8.6 20.4 17.5l30.9 77.8c0.2 0.2 0.5 0.2 0.6 0.2l43-72c4.8-8.1 13.4-13.3 22.9-14l83.6-5.4 0.4-0.4-55.2-63.3c-6.3-7.1-8.6-16.9-6.3-26.1l20.7-81.1c0-0.3-0.2-0.5-0.3-0.5l-77.3 33c-8.7 3.7-18.7 2.8-26.7-2.2l-70.8-44.8c0.1 0 0.1 0 0 0zM799.6 846.2c-6 0-11.9-2-16.9-5.8l-61-46.8-73.2 23.7c-10.2 3.3-21 0.5-28.4-7.1-7.4-7.6-9.8-18.6-6.2-28.6l25.7-72.4-45.1-62.3c-6.2-8.6-7-19.8-2.1-29.2 5-9.4 14.7-15.1 25.3-14.8l76.9 2.1 45.3-62.2c6.3-8.6 16.7-12.8 27.2-11 10.5 1.8 18.8 9.3 21.8 19.5l21.8 73.8 73.1 23.8c10.2 3.4 17.4 12 18.9 22.5s-3.1 20.8-11.8 26.7l-63.4 43.5-0.1 76.9c0 10.7-6 20.2-15.6 24.9-3.9 1.8-8.1 2.8-12.2 2.8zM721.9 765c6 0 12 2 16.9 5.8l60.1 46.2 0.1-75.8c0-9.1 4.5-17.6 12-22.8l62.6-42.9-72-23.5c-8.7-2.8-15.5-9.8-18-18.6L762 560.7 717.4 622c-5.4 7.4-14.2 11.7-23.2 11.4l-75.7-2 44.5 61.4c5.3 7.4 6.7 16.9 3.7 25.5l-25.4 71.5 72.1-23.3c2.8-1.1 5.6-1.5 8.5-1.5z" fill="#8A278E" p-id="5245"></path></svg>