<svg width="806" height="805" viewBox="0 0 806 805" fill="none" xmlns="http://www.w3.org/2000/svg">
<path d="M106.541 2.23C106.541 2.23 84.7608 130.95 92.2008 178.54C99.6408 226.13 88.3008 239.41 88.3008 239.41" stroke="white" stroke-width="4" stroke-miterlimit="10"/>
<path d="M81.8711 271.12C81.8711 271.12 101.721 268.19 124.481 257.85C147.241 247.51 201.061 210.34 201.061 210.34" stroke="white" stroke-width="4" stroke-miterlimit="10"/>
<path d="M2.57031 151.64L28.5403 143.35C29.9503 142.9 31.4303 142.71 32.9103 142.8L100.99 146.82C104.51 147.03 107.76 148.77 109.88 151.58L167.27 227.64C168.96 229.88 169.82 232.65 169.68 235.45L165.33 327.77C165.22 330.21 164.36 332.55 162.88 334.49L103.5 412.47" stroke="white" stroke-width="4" stroke-miterlimit="10"/>
<path d="M2.57031 323.37L48.4803 337.19C49.9003 337.62 51.4203 337.54 52.7803 336.96L80.9203 325.14C83.4503 324.08 85.0103 321.52 84.8003 318.78L81.3803 274.07C81.3003 273.06 81.4703 272.05 81.8603 271.11L91.6903 247.74C93.0603 244.5 91.5303 240.76 88.2903 239.4C74.9403 233.79 40.3803 220.83 2.57031 219.21" stroke="white" stroke-width="4" stroke-miterlimit="10"/>
<path d="M84.8086 318.79C84.8086 318.79 148.049 353.37 202.039 393.96C203.629 395.16 205.439 396.04 207.359 396.56L248.689 407.66C250.009 408.01 251.269 408.54 252.459 409.22L303.089 438.53" stroke="white" stroke-width="4" stroke-miterlimit="10"/>
<path d="M330.88 404.52L321.49 431.76C320.77 433.84 319.04 435.4 316.89 435.9L272.28 446.2C271.44 446.39 270.64 446.76 269.94 447.27C267.54 449.03 266.68 452.21 267.85 454.94L280.23 483.73C280.72 484.86 281.52 485.83 282.54 486.51L366.73 542.89" stroke="white" stroke-width="4" stroke-miterlimit="10"/>
<path d="M316.891 435.89L326.581 446.97C329.201 449.96 332.751 451.97 336.661 452.67C351.631 455.37 390.911 463.28 411.021 475.27" stroke="white" stroke-width="4" stroke-miterlimit="10"/>
<path d="M75.7106 234.53L47.3906 142.79" stroke="white" stroke-width="4" stroke-miterlimit="10"/>
<path d="M388.012 117.44L408.682 95.52C410.202 93.91 412.032 92.63 414.072 91.76C426.002 86.65 469.192 66.72 472.752 44.75C476.892 19.23 475.512 2.23 475.512 2.23" stroke="white" stroke-width="4" stroke-miterlimit="10"/>
<path d="M181.141 77.1C181.141 77.1 209.621 87.13 229.551 130.35C230.841 133.15 232.661 135.68 234.941 137.76L260.971 161.5C262.831 163.2 264.401 165.18 265.611 167.39L333.961 291.79" stroke="white" stroke-width="4" stroke-miterlimit="10"/>
<path d="M313.439 290.98L258.009 411.19C257.709 411.85 257.359 412.49 256.979 413.1L243.969 433.85C242.059 436.9 239.229 439.27 235.879 440.6L227.569 443.93C225.089 444.92 222.419 445.32 219.759 445.08L188.159 442.31C185.299 442.06 182.549 441.09 180.159 439.49C172.659 434.46 157.439 421.04 151.379 392.34" stroke="white" stroke-width="4" stroke-miterlimit="10"/>
<path d="M246.362 368.06C246.362 368.06 217.792 374.9 219.662 399.86C220.342 408.88 229.382 475.26 229.382 475.26" stroke="white" stroke-width="4" stroke-miterlimit="10"/>
<path d="M201.93 149.6C201.93 149.6 229.99 121.98 292.05 132.33C354.12 142.67 510.67 125.9 604.46 139.81C698.25 153.71 738.11 101.55 763.77 80.61C789.98 59.23 802.56 62.68 802.56 62.68" stroke="#282830" stroke-width="6" stroke-miterlimit="10"/>
<path d="M179.41 332.97C179.41 332.97 214.12 322.68 236.88 357.16C259.64 391.64 333.43 406.82 361.71 409.57C389.99 412.33 404.15 451.32 408.61 468.88C413.07 486.44 439.64 512.33 476.2 512.33C512.76 512.33 554.13 535.78 582.41 575.78C610.69 615.78 603.79 646.81 643.1 660.61C682.41 674.4 687.93 736.47 716.2 739.92C744.48 743.37 784.48 757.85 802.58 796.47" stroke="#282830" stroke-width="6" stroke-miterlimit="10"/>
<path d="M223.809 485.45C223.809 485.45 231.369 512.33 252.059 521.99C272.749 531.65 268.609 584.75 282.399 610.27C296.189 635.79 338.149 652.87 338.149 652.87" stroke="#282830" stroke-width="6" stroke-miterlimit="10"/>
<path d="M201.051 272.54C201.051 272.54 227.231 295.78 292.051 291.64C356.881 287.5 423.771 301.3 529.981 370.26C529.981 370.26 566.531 400.6 612.741 388.19C658.951 375.78 688.601 368.88 728.601 379.22C768.601 389.56 779.981 438.53 802.571 441.98" stroke="#282830" stroke-width="6" stroke-miterlimit="10"/>
<path d="M88.6103 802.23C88.6103 802.23 69.9903 733.02 92.0603 701.3C114.13 669.58 158.27 659.92 153.44 613.02C148.61 566.12 128.61 582.15 132.06 534.83C135.51 487.51 109.99 434.4 85.8503 408.19" stroke="#282830" stroke-width="6" stroke-miterlimit="10"/>
<path d="M773.442 2.23C773.442 2.23 775.512 38.54 712.062 61.99C648.612 85.44 725.162 185.44 749.992 211.65C774.822 237.86 772.062 305.44 695.512 313.72C618.962 322 587.232 284.06 534.132 317.86C481.032 351.66 487.232 427.52 429.992 471.65C372.752 515.79 388.612 554.41 296.892 576.48C205.172 598.55 169.992 691.65 92.062 701.31C14.132 710.97 2.58203 691.65 2.58203 691.65" stroke="#282830" stroke-width="6" stroke-miterlimit="10"/>
<path d="M149.3 2.23C149.3 2.23 151.37 30.95 168.61 56.47C185.85 81.99 205.85 119.92 201.71 175.09C197.57 230.26 209.02 241.99 202.26 268.19C195.5 294.4 180.31 316.47 176.87 347.5C173.43 378.53 129.29 427.5 85.8503 408.19C42.4003 388.88 38.6103 367.5 2.57031 365.43" stroke="#282830" stroke-width="6" stroke-miterlimit="10"/>
<path d="M204.449 802.23C204.449 802.23 231.369 781.3 245.849 735.09C260.329 688.88 303.779 660.61 347.919 650.26C392.059 639.92 507.229 600.6 566.539 494.4C566.539 494.4 591.369 439.02 625.849 412.57C660.329 386.12 653.639 332.77 689.399 314.27" stroke="#282830" stroke-width="6" stroke-miterlimit="10"/>
<path d="M2.57031 523.37C2.57031 523.37 47.9103 510.27 89.2903 526.82C130.67 543.37 201.7 535.1 219.63 494.41C237.56 453.72 245.15 462 265.84 450.27C286.53 438.55 314.12 378.55 328.6 322.68C343.08 266.82 394.12 279.23 412.05 246.13C429.98 213.03 430.67 145.26 466.53 106.04C502.39 66.82 490.99 2.23 490.99 2.23" stroke="#282830" stroke-width="6" stroke-miterlimit="10"/>
<path d="M273.441 2.23C273.441 2.23 309.991 35.09 323.101 66.82C336.201 98.54 392.111 103.46 398.981 135.49C405.861 167.51 433.341 175.58 433.341 175.58" stroke="#282830" stroke-width="6" stroke-miterlimit="10"/>
<path d="M402.57 2.23C402.57 2.23 411.54 21.99 388 47.51C364.46 73.03 362.91 100.79 362.91 100.79" stroke="#282830" stroke-width="6" stroke-miterlimit="10"/>
<path d="M180.681 41.75H146.191C142.878 41.75 140.191 44.4363 140.191 47.75V56.24C140.191 59.5537 142.878 62.24 146.191 62.24H180.681C183.995 62.24 186.681 59.5537 186.681 56.24V47.75C186.681 44.4363 183.995 41.75 180.681 41.75Z" fill="#6926F8"/>
<path d="M157.332 48.3691V56.2793H155.703V51.498L153.688 53.7012H153.219L151.18 51.498V56.2793H149.551V48.3691H150.102L153.453 51.8613L156.781 48.3691H157.332ZM162.734 52.5527V53.959H159.207V52.5527H162.734ZM166.414 48.252C166.969 48.252 167.457 48.3496 167.879 48.5449C168.309 48.7402 168.645 49.0098 168.887 49.3535C169.137 49.6895 169.262 50.0762 169.262 50.5137C169.262 50.8652 169.184 51.166 169.027 51.416C168.871 51.6582 168.676 51.8535 168.441 52.002C168.207 52.1504 167.969 52.248 167.727 52.2949C167.969 52.3496 168.207 52.4551 168.441 52.6113C168.676 52.7598 168.871 52.959 169.027 53.209C169.184 53.4512 169.262 53.748 169.262 54.0996C169.262 54.5605 169.133 54.9668 168.875 55.3184C168.625 55.6699 168.285 55.9473 167.855 56.1504C167.426 56.3535 166.941 56.4551 166.402 56.4551C165.98 56.4551 165.586 56.3926 165.219 56.2676C164.859 56.1348 164.574 55.9785 164.363 55.7988V54.2637C164.629 54.4434 164.906 54.6152 165.195 54.7793C165.484 54.9355 165.828 55.0137 166.227 55.0137C166.625 55.0137 166.961 54.9199 167.234 54.7324C167.508 54.5449 167.645 54.2637 167.645 53.8887C167.645 53.6699 167.574 53.4902 167.434 53.3496C167.293 53.2012 167.109 53.0918 166.883 53.0215C166.664 52.9434 166.43 52.9043 166.18 52.9043H165.535V51.6387H166.18C166.586 51.6387 166.93 51.5801 167.211 51.4629C167.5 51.3457 167.645 51.1191 167.645 50.7832C167.645 50.4395 167.496 50.1738 167.199 49.9863C166.91 49.791 166.57 49.6934 166.18 49.6934C165.844 49.6934 165.547 49.7637 165.289 49.9043C165.031 50.0371 164.793 50.2129 164.574 50.4316V48.9082C164.777 48.7207 165.035 48.5645 165.348 48.4395C165.66 48.3145 166.016 48.252 166.414 48.252ZM173.562 48.252C174.234 48.252 174.793 48.4395 175.238 48.8145C175.691 49.1816 176.027 49.6777 176.246 50.3027C176.473 50.9199 176.586 51.6035 176.586 52.3535C176.586 53.1035 176.473 53.791 176.246 54.416C176.027 55.0332 175.691 55.5293 175.238 55.9043C174.793 56.2715 174.234 56.4551 173.562 56.4551C172.891 56.4551 172.328 56.2715 171.875 55.9043C171.43 55.5293 171.094 55.0332 170.867 54.416C170.648 53.791 170.539 53.1035 170.539 52.3535C170.539 51.6035 170.648 50.9199 170.867 50.3027C171.094 49.6777 171.43 49.1816 171.875 48.8145C172.328 48.4395 172.891 48.252 173.562 48.252ZM173.562 49.6699C173.25 49.6699 172.988 49.791 172.777 50.0332C172.574 50.2676 172.422 50.5879 172.32 50.9941C172.219 51.3926 172.168 51.8457 172.168 52.3535C172.168 52.8613 172.219 53.3184 172.32 53.7246C172.422 54.123 172.574 54.4395 172.777 54.6738C172.988 54.9082 173.25 55.0254 173.562 55.0254C173.875 55.0254 174.133 54.9082 174.336 54.6738C174.547 54.4395 174.703 54.123 174.805 53.7246C174.914 53.3184 174.969 52.8613 174.969 52.3535C174.969 51.8457 174.914 51.3926 174.805 50.9941C174.703 50.5879 174.547 50.2676 174.336 50.0332C174.133 49.791 173.875 49.6699 173.562 49.6699Z" fill="#E9E6DC"/>
<path d="M552.99 125.08H527.52C524.206 125.08 521.52 127.766 521.52 131.08V139.57C521.52 142.884 524.206 145.57 527.52 145.57H552.99C556.303 145.57 558.99 142.884 558.99 139.57V131.08C558.99 127.766 556.303 125.08 552.99 125.08Z" fill="#6926F8"/>
<path d="M534.293 130.702L537.949 138.612H536.039L535.441 137.147H532.336L531.738 138.612H529.828L533.484 130.702H534.293ZM533.895 133.362L532.91 135.765H534.879L533.895 133.362ZM542.297 134.886V136.292H538.77V134.886H542.297ZM546.211 130.585C546.75 130.585 547.219 130.686 547.617 130.89C548.023 131.085 548.34 131.362 548.566 131.722C548.793 132.073 548.906 132.487 548.906 132.964C548.906 133.354 548.844 133.714 548.719 134.042C548.602 134.362 548.43 134.683 548.203 135.003C547.977 135.315 547.699 135.651 547.371 136.011C547.051 136.37 546.684 136.78 546.27 137.241H548.965V138.612H543.844V137.956C544.594 137.143 545.223 136.46 545.73 135.905C546.246 135.343 546.633 134.862 546.891 134.464C547.156 134.058 547.289 133.698 547.289 133.386C547.289 132.987 547.156 132.679 546.891 132.46C546.633 132.233 546.309 132.12 545.918 132.12C545.559 132.12 545.207 132.214 544.863 132.401C544.52 132.589 544.238 132.8 544.02 133.034V131.37C544.254 131.167 544.566 130.987 544.957 130.831C545.348 130.667 545.766 130.585 546.211 130.585Z" fill="#E9E6DC"/>
<path d="M404.083 420.74H378.613C375.3 420.74 372.613 423.426 372.613 426.74V435.23C372.613 438.544 375.3 441.23 378.613 441.23H404.083C407.397 441.23 410.083 438.544 410.083 435.23V426.74C410.083 423.426 407.397 420.74 404.083 420.74Z" fill="#6926F8"/>
<path d="M386.379 426.361L390.035 434.271H388.125L387.527 432.806H384.422L383.824 434.271H381.914L385.57 426.361H386.379ZM385.98 429.021L384.996 431.424H386.965L385.98 429.021ZM394.383 430.545V431.951H390.855V430.545H394.383ZM398.062 426.244C398.617 426.244 399.105 426.342 399.527 426.537C399.957 426.732 400.293 427.002 400.535 427.345C400.785 427.681 400.91 428.068 400.91 428.506C400.91 428.857 400.832 429.158 400.676 429.408C400.52 429.65 400.324 429.845 400.09 429.994C399.855 430.142 399.617 430.24 399.375 430.287C399.617 430.342 399.855 430.447 400.09 430.603C400.324 430.752 400.52 430.951 400.676 431.201C400.832 431.443 400.91 431.74 400.91 432.092C400.91 432.552 400.781 432.959 400.523 433.31C400.273 433.662 399.934 433.939 399.504 434.142C399.074 434.345 398.59 434.447 398.051 434.447C397.629 434.447 397.234 434.385 396.867 434.26C396.508 434.127 396.223 433.97 396.012 433.791V432.256C396.277 432.435 396.555 432.607 396.844 432.771C397.133 432.927 397.477 433.006 397.875 433.006C398.273 433.006 398.609 432.912 398.883 432.724C399.156 432.537 399.293 432.256 399.293 431.881C399.293 431.662 399.223 431.482 399.082 431.342C398.941 431.193 398.758 431.084 398.531 431.013C398.312 430.935 398.078 430.896 397.828 430.896H397.184V429.631H397.828C398.234 429.631 398.578 429.572 398.859 429.455C399.148 429.338 399.293 429.111 399.293 428.775C399.293 428.431 399.145 428.166 398.848 427.978C398.559 427.783 398.219 427.685 397.828 427.685C397.492 427.685 397.195 427.756 396.938 427.896C396.68 428.029 396.441 428.205 396.223 428.424V426.9C396.426 426.713 396.684 426.556 396.996 426.431C397.309 426.306 397.664 426.244 398.062 426.244Z" fill="#E9E6DC"/>
<path d="M131.271 455.58H105.801C102.487 455.58 99.8008 458.266 99.8008 461.58V470.07C99.8008 473.384 102.487 476.07 105.801 476.07H131.271C134.584 476.07 137.271 473.384 137.271 470.07V461.58C137.271 458.266 134.584 455.58 131.271 455.58Z" fill="#6926F8"/>
<path d="M113.566 461.199L117.223 469.109H115.312L114.715 467.644H111.609L111.012 469.109H109.102L112.758 461.199H113.566ZM113.168 463.859L112.184 466.262H114.152L113.168 463.859ZM121.57 465.383V466.789H118.043V465.383H121.57ZM127.523 461.258V466.051H128.59V467.375H127.523V469.109H126.023V467.375H122.719V466.414C123.359 465.711 124.004 464.941 124.652 464.105C125.301 463.262 125.918 462.312 126.504 461.258H127.523ZM126.023 464.211C125.789 464.562 125.566 464.887 125.355 465.184C125.152 465.48 124.93 465.769 124.688 466.051H126.023V464.211Z" fill="#E9E6DC"/>
<path d="M88.3214 512.75H52.4414C49.1277 512.75 46.4414 515.436 46.4414 518.75V527.24C46.4414 530.554 49.1277 533.24 52.4414 533.24H88.3214C91.6351 533.24 94.3214 530.554 94.3214 527.24V518.75C94.3214 515.436 91.6351 512.75 88.3214 512.75Z" fill="#6926F8"/>
<path d="M64.5781 518.369V526.279H62.9492V521.498L60.9336 523.701H60.4648L58.4258 521.498V526.279H56.7969V518.369H57.3477L60.6992 521.861L64.0273 518.369H64.5781ZM69.9805 522.553V523.959H66.4531V522.553H69.9805ZM75.9336 518.428V523.221H77V524.545H75.9336V526.279H74.4336V524.545H71.1289V523.584C71.7695 522.881 72.4141 522.111 73.0625 521.275C73.7109 520.432 74.3281 519.482 74.9141 518.428H75.9336ZM74.4336 521.381C74.1992 521.732 73.9766 522.057 73.7656 522.354C73.5625 522.65 73.3398 522.939 73.0977 523.221H74.4336V521.381ZM80.8086 518.252C81.4805 518.252 82.0391 518.439 82.4844 518.814C82.9375 519.182 83.2734 519.678 83.4922 520.303C83.7188 520.92 83.832 521.604 83.832 522.354C83.832 523.104 83.7188 523.791 83.4922 524.416C83.2734 525.033 82.9375 525.529 82.4844 525.904C82.0391 526.271 81.4805 526.455 80.8086 526.455C80.1367 526.455 79.5742 526.271 79.1211 525.904C78.6758 525.529 78.3398 525.033 78.1133 524.416C77.8945 523.791 77.7852 523.104 77.7852 522.354C77.7852 521.604 77.8945 520.92 78.1133 520.303C78.3398 519.678 78.6758 519.182 79.1211 518.814C79.5742 518.439 80.1367 518.252 80.8086 518.252ZM80.8086 519.67C80.4961 519.67 80.2344 519.791 80.0234 520.033C79.8203 520.268 79.668 520.588 79.5664 520.994C79.4648 521.393 79.4141 521.846 79.4141 522.354C79.4141 522.861 79.4648 523.318 79.5664 523.725C79.668 524.123 79.8203 524.439 80.0234 524.674C80.2344 524.908 80.4961 525.025 80.8086 525.025C81.1211 525.025 81.3789 524.908 81.582 524.674C81.793 524.439 81.9492 524.123 82.0508 523.725C82.1602 523.318 82.2148 522.861 82.2148 522.354C82.2148 521.846 82.1602 521.393 82.0508 520.994C81.9492 520.588 81.793 520.268 81.582 520.033C81.3789 519.791 81.1211 519.67 80.8086 519.67Z" fill="#E9E6DC"/>
<path d="M437.581 615.08H402.441C399.128 615.08 396.441 617.766 396.441 621.08V629.57C396.441 632.884 399.128 635.57 402.441 635.57H437.581C440.895 635.57 443.581 632.884 443.581 629.57V621.08C443.581 617.766 440.895 615.08 437.581 615.08Z" fill="#6926F8"/>
<path d="M414.578 621.701V629.611H412.949V624.83L410.934 627.033H410.465L408.426 624.83V629.611H406.797V621.701H407.348L410.699 625.193L414.027 621.701H414.578ZM419.98 625.885V627.291H416.453V625.885H419.98ZM426.238 621.76V623.213H423.391V624.865C423.523 624.81 423.684 624.768 423.871 624.736C424.059 624.697 424.258 624.678 424.469 624.678C424.859 624.678 425.223 624.775 425.559 624.971C425.902 625.158 426.18 625.424 426.391 625.768C426.602 626.103 426.707 626.502 426.707 626.963C426.707 627.572 426.57 628.088 426.297 628.51C426.023 628.924 425.66 629.24 425.207 629.459C424.754 629.678 424.25 629.787 423.695 629.787C423.172 629.787 422.727 629.705 422.359 629.541C421.992 629.369 421.707 629.201 421.504 629.037V627.584C421.785 627.756 422.082 627.928 422.395 628.1C422.707 628.264 423.066 628.346 423.473 628.346C423.941 628.346 424.328 628.248 424.633 628.053C424.938 627.85 425.09 627.549 425.09 627.15C425.09 626.791 424.934 626.502 424.621 626.283C424.316 626.064 423.934 625.955 423.473 625.955C423.176 625.955 422.902 625.986 422.652 626.049C422.41 626.111 422.18 626.178 421.961 626.248V621.76H426.238ZM430.809 621.584C431.48 621.584 432.039 621.771 432.484 622.146C432.938 622.514 433.273 623.01 433.492 623.635C433.719 624.252 433.832 624.935 433.832 625.685C433.832 626.435 433.719 627.123 433.492 627.748C433.273 628.365 432.938 628.861 432.484 629.236C432.039 629.603 431.48 629.787 430.809 629.787C430.137 629.787 429.574 629.603 429.121 629.236C428.676 628.861 428.34 628.365 428.113 627.748C427.895 627.123 427.785 626.435 427.785 625.685C427.785 624.935 427.895 624.252 428.113 623.635C428.34 623.01 428.676 622.514 429.121 622.146C429.574 621.771 430.137 621.584 430.809 621.584ZM430.809 623.002C430.496 623.002 430.234 623.123 430.023 623.365C429.82 623.6 429.668 623.92 429.566 624.326C429.465 624.725 429.414 625.178 429.414 625.685C429.414 626.193 429.465 626.65 429.566 627.057C429.668 627.455 429.82 627.771 430.023 628.006C430.234 628.24 430.496 628.357 430.809 628.357C431.121 628.357 431.379 628.24 431.582 628.006C431.793 627.771 431.949 627.455 432.051 627.057C432.16 626.65 432.215 626.193 432.215 625.685C432.215 625.178 432.16 624.725 432.051 624.326C431.949 623.92 431.793 623.6 431.582 623.365C431.379 623.123 431.121 623.002 430.809 623.002Z" fill="#E9E6DC"/>
<path d="M410.082 248.56H386.402C383.089 248.56 380.402 251.246 380.402 254.56V263.05C380.402 266.364 383.089 269.05 386.402 269.05H410.082C413.396 269.05 416.082 266.364 416.082 263.05V254.56C416.082 251.246 413.396 248.56 410.082 248.56Z" fill="#22C878"/>
<path d="M394.859 258.423V259.747H391.391V261.646H395.316V263.087H389.762V255.236H395.316V256.642H391.391V258.423H394.859ZM400.484 259.361V260.767H396.957V259.361H400.484ZM406.742 255.236V256.689H403.895V258.341C404.027 258.287 404.188 258.244 404.375 258.212C404.562 258.173 404.762 258.154 404.973 258.154C405.363 258.154 405.727 258.251 406.062 258.447C406.406 258.634 406.684 258.9 406.895 259.244C407.105 259.58 407.211 259.978 407.211 260.439C407.211 261.048 407.074 261.564 406.801 261.986C406.527 262.4 406.164 262.716 405.711 262.935C405.258 263.154 404.754 263.263 404.199 263.263C403.676 263.263 403.23 263.181 402.863 263.017C402.496 262.845 402.211 262.677 402.008 262.513V261.06C402.289 261.232 402.586 261.404 402.898 261.576C403.211 261.74 403.57 261.822 403.977 261.822C404.445 261.822 404.832 261.724 405.137 261.529C405.441 261.326 405.594 261.025 405.594 260.626C405.594 260.267 405.438 259.978 405.125 259.759C404.82 259.54 404.438 259.431 403.977 259.431C403.68 259.431 403.406 259.462 403.156 259.525C402.914 259.587 402.684 259.654 402.465 259.724V255.236H406.742Z" fill="#E9E6DC"/>
</svg>
