<?xml version="1.0" standalone="no"?><!DOCTYPE svg PUBLIC "-//W3C//DTD SVG 1.1//EN" "http://www.w3.org/Graphics/SVG/1.1/DTD/svg11.dtd"><svg t="1645090975713" class="icon" viewBox="0 0 1024 1024" version="1.1" xmlns="http://www.w3.org/2000/svg" p-id="1227" width="48" height="48" xmlns:xlink="http://www.w3.org/1999/xlink"><defs><style type="text/css"></style></defs><path d="M129.832 884.872a381.336 81.488 0 1 0 762.672 0 381.336 81.488 0 1 0-762.672 0Z" fill="#B8CBCD" p-id="1228"></path><path d="M208.52 243.224c-22.608-66.672 13.44-102.72 80.112-80.112l38.12 12.92L459.2 220.944c6.176 2.096 15.192 0.856 20.024-2.744l111.376-83.112 33.68-25.136c56.424-42.104 101.848-18.96 100.952 51.432l-0.512 40.024-1.784 139.96c-0.088 6.584 2.824 14.072 6.456 16.648 3.64 2.568 52.992 38.84 109.672 80.592l41.896 30.864c56.68 41.76 47.664 91.728-20.032 111.056l-41.832 11.936c-67.696 19.32-127.032 36.36-131.848 37.856-4.832 1.504-10.48 8.2-12.56 14.896-2.08 6.696-20.872 67.176-41.776 134.4l-11.424 36.736c-20.896 67.224-71.248 75.2-111.896 17.72l-28.4-40.144-78.176-110.544c-2.344-3.32-9.384-5.976-15.632-5.896l-139.36 1.784-41.216 0.528c-70.4 0.896-93.536-44.528-51.44-100.944l26.032-34.888L264.064 433.2c3.368-4.504 4.312-13.512 2.112-20.016l-45.12-133.04-12.536-36.92z" fill="#F6E89A" p-id="1229"></path><path d="M566.6 896.488c-27.272 0-54.488-17.24-76.616-48.544l-28.4-40.144-75.072-106.16-181.768 2.176c-57.552 0-79.488-26.6-87.44-42.456-8.024-16.008-16.256-49.872 18.808-96.856l107.224-143.688a1.632 1.632 0 0 0-0.032-0.312l-57.528-169.584c-15.696-46.272-5.656-74.584 5.528-90.184 19.992-27.872 59.288-35.856 105.024-20.36l169.752 57.56 0.168-0.016 143.664-107.2c22.928-17.112 45.304-25.792 66.488-25.792 18.512 0 34.968 6.768 47.608 19.576 16.912 17.128 25.624 43.816 25.2 77.192l-0.832 64.472c-0.752 58.376-1.368 107.024-1.464 114.936 13.904 10.144 62.248 45.696 106.352 78.184l41.896 30.864c47.464 34.968 49.192 69.84 46.008 87.52-3.184 17.68-17 49.752-73.688 65.936l-41.832 11.936a35027.144 35027.144 0 0 0-128.04 36.728 0.856 0.856 0 0 0-0.072 0.152l-53.168 171.064c-14.392 46.384-42.744 72.992-77.768 73zM387.088 653.504c11.472 0 27.16 4.208 35.52 16.056l78.168 110.528 28.4 40.144c12.512 17.696 26.504 28.264 37.432 28.256 12.184 0 24.432-15.04 31.952-39.248l53.2-171.128c3.768-12.08 13.984-26.24 28.368-30.704 5.528-1.72 71.656-20.688 132.384-38.024l41.832-11.936c22.792-6.504 37.6-17.08 39.624-28.296 2.024-11.216-8.168-26.304-27.24-40.352l-41.896-30.864c-61.624-45.4-106.256-78.176-109.28-80.312-11.704-8.296-16.768-24.336-16.608-36.568l1.472-115.496 0.832-64.472c0.248-19.664-3.888-35.288-11.36-42.856-3.56-3.616-7.84-5.296-13.456-5.296-10.312 0-23.736 5.776-37.792 16.264L493.552 237.44c-10.912 8.136-28.664 10.784-42.08 6.232L280.92 185.84c-24.128-8.184-43.456-7.104-50.592 2.864-6.36 8.872-6.016 26.368 0.912 46.808l57.648 169.984c4.744 14 2.432 31.304-5.616 42.08L174.584 593.216c-14.136 18.944-19.504 36.376-14.368 46.632 5.016 10 21.664 15.976 44.528 15.976l42.952-0.536 139.368-1.784h0.024z" fill="#8D4520" p-id="1230"></path><path d="M407.296 713.44a23.976 23.976 0 0 1-19.928-10.592l-20.152-29.944H149.624c-10.704 0-20.208-5.672-24.832-14.8-4.864-9.632-3.544-21.144 3.536-30.776l73.568-100.024c34.4-46.768 65.376-88.84 72.896-99.016a1.816 1.816 0 0 0-0.032-0.328c-1.736-5.064-21.912-58.88-49.016-130.296l-4.776-12.592c-22.096-58.224-4.672-87.296 7.688-99.448 11.44-11.248 38.048-27.168 87.744-7.344 57.136 22.792 103.344 40.96 116.336 45.872 1.712-0.664 4.232-1.984 6.384-3.872l15.472-13.584a24 24 0 1 1 31.656 36.08l-15.456 13.56c-12.872 11.304-33.4 20.168-50.24 14.456-7.664-2.6-68.536-26.64-121.928-47.936-19.36-7.728-32.184-7.072-36.312-3.016-5.168 5.088-6.272 22.336 3.536 48.192l4.776 12.592c22.424 59.08 47.152 124.728 49.72 132.304 4.744 14 2.432 31.312-5.624 42.08-3.328 4.472-36.712 49.8-74.152 100.704l-50.872 69.168h181.808c12.728 0 25.84 6.784 32.632 16.88l23.048 34.24a24 24 0 0 1-6.504 33.32 23.744 23.744 0 0 1-13.384 4.12z" fill="#FFFFFF" p-id="1231"></path><path d="M599.296 895.168l-46.592-11.544 33.2-133.96c15.208-61.36 32.44-129.664 34.952-137.752 3.768-12.08 13.984-26.24 28.368-30.704 7.048-2.192 84.76-20.24 135.272-31.832l29.376-6.744c28.376-6.512 37.296-16.584 38.056-20.992 0.76-4.408-4.312-16.872-28.912-32.448l-23.728-15.032c-41.984-26.584-110.544-70.144-115.776-73.84-11.688-8.272-16.752-24.312-16.592-36.552 0.088-7.08 1.384-73.52 2.616-135.488l2.472-123.352 47.984 0.96-2.472 123.344c-1.384 69.672-2.456 125.056-2.592 134.32 12.888 8.352 56.024 35.848 110.048 70.056l23.728 15.032c50.568 32.024 53.368 64.552 50.536 81.096-2.824 16.544-16.288 46.296-74.632 59.68l-29.376 6.744c-64.416 14.784-114.64 26.584-128.552 30.056l-0.008 0.008c-1.712 5.552-16.184 62.416-34.168 134.984l-33.208 133.96z" fill="#8D4520" p-id="1232"></path><path d="M566.6 896.488c-27.272 0-54.488-17.24-76.616-48.544l-28.4-40.144-75.072-106.16-181.768 2.176c-57.552 0-79.488-26.6-87.44-42.456-8.024-16.008-16.256-49.872 18.808-96.856l107.224-143.688a1.632 1.632 0 0 0-0.032-0.312l-57.528-169.584c-15.696-46.272-5.656-74.584 5.528-90.184 19.992-27.872 59.288-35.856 105.024-20.36l169.752 57.56 0.168-0.016 143.664-107.2c22.928-17.112 45.304-25.792 66.488-25.792 18.512 0 34.968 6.768 47.608 19.576 16.912 17.128 25.624 43.816 25.2 77.192l-0.832 64.472c-0.752 58.376-1.368 107.024-1.464 114.936 13.904 10.144 62.248 45.696 106.352 78.184l41.896 30.864c47.464 34.968 49.192 69.84 46.008 87.52-3.184 17.68-17 49.752-73.688 65.936l-41.832 11.936a35027.144 35027.144 0 0 0-128.04 36.728 0.856 0.856 0 0 0-0.072 0.152l-53.168 171.064c-14.392 46.384-42.744 72.992-77.768 73zM387.088 653.504c11.472 0 27.16 4.208 35.52 16.056l78.168 110.528 28.4 40.144c12.512 17.696 26.504 28.264 37.432 28.256 12.184 0 24.432-15.04 31.952-39.248l53.2-171.128c3.768-12.08 13.984-26.24 28.368-30.704 5.528-1.72 71.656-20.688 132.384-38.024l41.832-11.936c22.792-6.504 37.6-17.08 39.624-28.296 2.024-11.216-8.168-26.304-27.24-40.352l-41.896-30.864c-61.624-45.4-106.256-78.176-109.28-80.312-11.704-8.296-16.768-24.336-16.608-36.568l1.472-115.496 0.832-64.472c0.248-19.664-3.888-35.288-11.36-42.856-3.56-3.616-7.84-5.296-13.456-5.296-10.312 0-23.736 5.776-37.792 16.264L493.552 237.44c-10.912 8.136-28.664 10.784-42.08 6.232L280.92 185.84c-24.128-8.184-43.456-7.104-50.592 2.864-6.36 8.872-6.016 26.368 0.912 46.808l57.648 169.984c4.744 14 2.432 31.304-5.616 42.08L174.584 593.216c-14.136 18.944-19.504 36.376-14.368 46.632 5.016 10 21.664 15.976 44.528 15.976l42.952-0.536 139.368-1.784h0.024z" fill="#8D4520" p-id="1233"></path></svg>